<svg xmlns="http://www.w3.org/2000/svg" width="610.3" height="173.979" viewBox="0 0 610.3 173.979">
  <g id="Group_62" data-name="Group 62" transform="translate(-1173.425 -728.739)">
    <g id="Group_58" data-name="Group 58" transform="translate(1173.425 733.333)">
      <g id="Group_54" data-name="Group 54" transform="translate(0)">
        <path id="Path_84" data-name="Path 84" d="M443.42,369.442v10.839c-12.312-.149-14.322.448-25.838,1.622-10.251,1.035-20.135,2.508-29.58,4.31-4.8.906-9.485,1.9-14.053,2.956-10.56,2.439-20.463,5.215-29.58,8.122q-7.39,2.344-14.063,4.777c-11.725,4.24-21.7,8.49-29.57,12.133-12.252,5.663-19.408,9.863-20.095,10.271A170.866,170.866,0,0,1,300.735,411a238.191,238.191,0,0,1,29.57-14.312q6.987-2.822,14.063-5.275c9.953-3.474,19.926-6.42,29.58-8.9,4.777-1.234,9.475-2.349,14.053-3.364,10.7-2.369,20.732-4.18,29.58-5.564C438.951,370.248,443.42,369.442,443.42,369.442Z" transform="translate(-280.64 -255.086)" fill="#f4640e"/>
        <g id="Group_53" data-name="Group 53" transform="translate(20.091 40.226)">
          <path id="Path_85" data-name="Path 85" d="M330.4,324.911v76.946c-11.725,4.24-21.7,8.49-29.57,12.133V341.711A248.359,248.359,0,0,1,330.4,324.911Z" transform="translate(-300.826 -295.102)" fill="#f4640e"/>
          <path id="Path_86" data-name="Path 86" d="M374.246,307.231v81.644c-10.56,2.438-20.463,5.215-29.58,8.122V318.418C354.659,314.148,364.641,310.436,374.246,307.231Z" transform="translate(-301.033 -295.019)" fill="#f4640e"/>
          <path id="Path_87" data-name="Path 87" d="M418.086,294.961v86.59c-10.251,1.035-20.135,2.508-29.58,4.31V302.754C399.414,299.5,409.507,296.932,418.086,294.961Z" transform="translate(-301.239 -294.961)" fill="#f4640e"/>
        </g>
        <path id="Path_88" data-name="Path 88" d="M330.4,324.911v48.441a292.933,292.933,0,0,0-29.57,14.5V341.711A248.359,248.359,0,0,1,330.4,324.911Z" transform="translate(-280.735 -254.876)" fill="#ffc661" opacity="0.19"/>
        <path id="Path_89" data-name="Path 89" d="M344.666,318.418c9.993-4.27,19.975-7.982,29.58-11.187V358.14c-10.749,2.966-20.612,6.211-29.58,9.545Z" transform="translate(-280.942 -254.793)" fill="#ffc661" opacity="0.19"/>
        <path id="Path_90" data-name="Path 90" d="M418.086,294.961v53.726c-10.441,1.642-20.294,3.613-29.58,5.8V302.754C399.414,299.5,409.507,296.932,418.086,294.961Z" transform="translate(-281.148 -254.735)" fill="#ffc661" opacity="0.19"/>
        <path id="Path_91" data-name="Path 91" d="M300.826,341.711a248.385,248.385,0,0,1,29.57-16.8v21.747a292.22,292.22,0,0,0-29.57,15.039Z" transform="translate(-280.735 -254.876)" fill="#ffc661" opacity="0.19"/>
        <path id="Path_92" data-name="Path 92" d="M344.666,318.418c9.993-4.27,19.975-7.982,29.58-11.187V330.76c-10.769,3.125-20.632,6.519-29.58,9.993Z" transform="translate(-280.942 -254.793)" fill="#ffc661" opacity="0.19"/>
        <path id="Path_93" data-name="Path 93" d="M388.506,302.754c10.908-3.255,21-5.822,29.58-7.793v25.728c-10.451,1.792-20.3,3.892-29.58,6.211Z" transform="translate(-281.148 -254.735)" fill="#ffc661" opacity="0.19"/>
        <path id="Path_94" data-name="Path 94" d="M286.117,333.16s104.044-29.746,143.77-58.122l7.567,8.828,5.991-25.021-24.593-4.3,5.991,8.512S381.305,300.029,286.117,333.16Z" transform="translate(-284.666 -259.138)" fill="#fecdc1"/>
      </g>
    </g>
    <path id="Path_107" data-name="Path 107" d="M4.98,15.385H31.049c18.773,0,31.644-11.313,31.644-28.693S49.823-42,31.049-42H4.98Zm13.281-10.9V-31.1H30.394c11.4,0,18.855,6.8,18.855,17.789S41.789,4.482,30.394,4.482ZM89.582-29.375c-7.05,0-14.182,1.886-19.019,5.329l4.591,8.936a21.207,21.207,0,0,1,12.707-4.1c6.886,0,10.165,3.2,10.165,8.69H87.861c-13.445,0-18.937,5.411-18.937,13.2,0,7.624,6.148,13.363,16.478,13.363,6.476,0,11.067-2.131,13.445-6.148v5.493h11.969V-9.782C110.815-23.145,103.027-29.375,89.582-29.375ZM88.6,7.433c-4.509,0-7.214-2.131-7.214-5.329,0-2.951,1.886-5.165,7.87-5.165h8.772V1.449C96.551,5.466,92.862,7.433,88.6,7.433Zm58.779-3.2a8.619,8.619,0,0,1-5.165,1.64c-3.443,0-5.493-2.049-5.493-5.821V-17.9h10.985v-9.838H136.72V-38.475H123.932v10.739h-6.8V-17.9h6.8V.219c0,10.493,6.066,15.822,16.478,15.822,3.935,0,7.788-.9,10.411-2.787Zm28.447-33.611c-7.05,0-14.182,1.886-19.019,5.329l4.591,8.936a21.207,21.207,0,0,1,12.707-4.1c6.886,0,10.165,3.2,10.165,8.69H174.1c-13.445,0-18.937,5.411-18.937,13.2,0,7.624,6.148,13.363,16.478,13.363,6.476,0,11.067-2.131,13.445-6.148v5.493h11.969V-9.782C197.057-23.145,189.269-29.375,175.825-29.375Zm-.984,36.809c-4.509,0-7.214-2.131-7.214-5.329,0-2.951,1.886-5.165,7.87-5.165h8.772V1.449C182.793,5.466,179.1,7.433,174.841,7.433ZM249.032-42V-7.159L220.5-42H209.518V15.385h13.117V-19.456l28.611,34.841h10.9V-42ZM318.058-6.5c0-14.182-10-22.872-22.954-22.872-13.445,0-23.528,9.51-23.528,22.708,0,13.117,9.919,22.708,25.168,22.708,7.952,0,14.1-2.459,18.2-7.132l-6.8-7.378a14.951,14.951,0,0,1-11.067,4.263c-6.722,0-11.4-3.361-12.625-8.854h33.366C317.894-4.126,318.058-5.519,318.058-6.5ZM295.186-19.7a10.48,10.48,0,0,1,10.821,9.182H284.283C285.185-16.177,289.366-19.7,295.186-19.7Zm46.236,35.743c13.2,0,20.823-5.821,20.823-14.018,0-17.38-26.643-10.083-26.643-17.626,0-2.3,2.459-4.1,8.2-4.1a25.328,25.328,0,0,1,12.707,3.279l4.263-9.1c-4.181-2.459-10.9-3.853-16.97-3.853-12.871,0-20.413,5.9-20.413,14.264,0,17.626,26.643,10.247,26.643,17.462,0,2.459-2.213,4.017-8.116,4.017A30.175,30.175,0,0,1,326.584,2.1l-4.263,9.182C326.42,13.992,333.962,16.041,341.422,16.041Zm53.7-11.8a8.619,8.619,0,0,1-5.165,1.64c-3.443,0-5.493-2.049-5.493-5.821V-17.9h10.985v-9.838H384.461V-38.475H371.673v10.739h-6.8V-17.9h6.8V.219c0,10.493,6.066,15.822,16.478,15.822,3.935,0,7.788-.9,10.411-2.787Z" transform="translate(1385.163 841.047)" fill="#f4640e"/>
  </g>
</svg>
