<svg xmlns="http://www.w3.org/2000/svg" width="627.238" height="592.468" viewBox="0 0 627.238 592.468">
  <g id="Objects_2" transform="translate(-922.967 -116.494)">
    <g id="Group_367" data-name="Group 367">
      <g id="Group_361" data-name="Group 361">
        <path id="Path_290" data-name="Path 290" d="M1533.9,429.733c-6.359,372.337-560.2,372.279-566.508-.012C973.754,57.4,1527.6,57.454,1533.9,429.733Z" fill="#ffd6e4"/>
      </g>
      <g id="Group_366" data-name="Group 366">
        <g id="Group_362" data-name="Group 362">
          <path id="Path_291" data-name="Path 291" d="M963.713,647.934H925.356a2.389,2.389,0,0,1,0-4.778h38.357C966.8,643.112,966.82,647.98,963.713,647.934Z" fill="#2e0f07"/>
        </g>
        <g id="Group_363" data-name="Group 363">
          <path id="Path_292" data-name="Path 292" d="M1202.42,647.934h-38.357a2.389,2.389,0,1,1,0-4.778h38.357C1205.5,643.112,1205.52,647.98,1202.42,647.934Z" fill="#2e0f07"/>
        </g>
        <g id="Group_364" data-name="Group 364">
          <path id="Path_293" data-name="Path 293" d="M1142.22,647.934H988.792a2.389,2.389,0,0,1,0-4.778h153.429C1145.28,643.112,1145.35,647.98,1142.22,647.934Z" fill="#2e0f07"/>
        </g>
        <g id="Group_365" data-name="Group 365">
          <path id="Path_294" data-name="Path 294" d="M1547.89,647.934c-2.516-2.361-373.117,4.537-372.686-2.383-.59-6.952,370.341-.018,372.691-2.4C1550.88,643.112,1551.07,647.98,1547.89,647.934Z" fill="#2e0f07"/>
        </g>
      </g>
    </g>
    <g id="Group_398" data-name="Group 398">
      <g id="Group_382" data-name="Group 382">
        <g id="Group_369" data-name="Group 369">
          <g id="Group_368" data-name="Group 368">
            <path id="Path_295" data-name="Path 295" d="M1442.99,639.178c-3.42-1.338-3.42-400.515-.008-401.872C1446.41,238.643,1446.41,637.82,1442.99,639.178Z" fill="#fff"/>
          </g>
        </g>
        <g id="Group_371" data-name="Group 371">
          <g id="Group_370" data-name="Group 370">
            <path id="Path_296" data-name="Path 296" d="M1379.32,639.178c-3.42-1.338-3.42-400.515-.008-401.872C1382.74,238.643,1382.74,637.82,1379.32,639.178Z" fill="#fff"/>
          </g>
        </g>
        <g id="Group_373" data-name="Group 373">
          <g id="Group_372" data-name="Group 372">
            <path id="Path_297" data-name="Path 297" d="M1315.65,639.178c-3.42-1.338-3.42-400.515-.008-401.872C1319.06,238.643,1319.06,637.82,1315.65,639.178Z" fill="#fff"/>
          </g>
        </g>
        <g id="Group_375" data-name="Group 375">
          <g id="Group_374" data-name="Group 374">
            <path id="Path_298" data-name="Path 298" d="M1251.97,639.178c-3.42-1.338-3.42-400.515-.008-401.872C1255.39,238.643,1255.39,637.82,1251.97,639.178Z" fill="#fff"/>
          </g>
        </g>
        <g id="Group_377" data-name="Group 377">
          <g id="Group_376" data-name="Group 376">
            <path id="Path_299" data-name="Path 299" d="M1188.3,639.178c-3.42-1.338-3.42-400.515-.008-401.872C1191.72,238.644,1191.72,637.82,1188.3,639.178Z" fill="#fff"/>
          </g>
        </g>
        <g id="Group_379" data-name="Group 379">
          <g id="Group_378" data-name="Group 378">
            <path id="Path_300" data-name="Path 300" d="M1124.62,639.178c-3.42-1.338-3.42-400.515-.008-401.872C1128.04,238.644,1128.04,637.82,1124.62,639.178Z" fill="#fff"/>
          </g>
        </g>
        <g id="Group_381" data-name="Group 381">
          <g id="Group_380" data-name="Group 380">
            <path id="Path_301" data-name="Path 301" d="M1060.95,639.178c-3.42-1.338-3.42-400.515-.008-401.872C1064.37,238.644,1064.37,637.82,1060.95,639.178Z" fill="#fff"/>
          </g>
        </g>
      </g>
      <g id="Group_397" data-name="Group 397">
        <g id="Group_384" data-name="Group 384">
          <g id="Group_383" data-name="Group 383">
            <path id="Path_302" data-name="Path 302" d="M1451.12,631.054c-1.953-1.791-400.344,3.43-400.078-1.787C1049.16,627.339,1461.77,622.812,1451.12,631.054Z" fill="#fff"/>
          </g>
        </g>
        <g id="Group_386" data-name="Group 386">
          <g id="Group_385" data-name="Group 385">
            <path id="Path_303" data-name="Path 303" d="M1451.12,567.38c-1.953-1.791-400.344,3.431-400.078-1.787C1049.16,563.665,1461.77,559.138,1451.12,567.38Z" fill="#fff"/>
          </g>
        </g>
        <g id="Group_388" data-name="Group 388">
          <g id="Group_387" data-name="Group 387">
            <path id="Path_304" data-name="Path 304" d="M1451.12,503.707c-1.953-1.791-400.344,3.43-400.078-1.787C1049.16,499.992,1461.77,495.465,1451.12,503.707Z" fill="#fff"/>
          </g>
        </g>
        <g id="Group_390" data-name="Group 390">
          <g id="Group_389" data-name="Group 389">
            <path id="Path_305" data-name="Path 305" d="M1451.12,440.033c-1.953-1.791-400.344,3.431-400.078-1.787C1049.16,436.318,1461.77,431.791,1451.12,440.033Z" fill="#fff"/>
          </g>
        </g>
        <g id="Group_392" data-name="Group 392">
          <g id="Group_391" data-name="Group 391">
            <path id="Path_306" data-name="Path 306" d="M1451.12,376.36c-1.953-1.791-400.344,3.431-400.078-1.787C1049.16,372.645,1461.77,368.118,1451.12,376.36Z" fill="#fff"/>
          </g>
        </g>
        <g id="Group_394" data-name="Group 394">
          <g id="Group_393" data-name="Group 393">
            <path id="Path_307" data-name="Path 307" d="M1451.12,312.686c-1.953-1.791-400.344,3.431-400.078-1.787C1049.16,308.971,1461.77,304.444,1451.12,312.686Z" fill="#fff"/>
          </g>
        </g>
        <g id="Group_396" data-name="Group 396">
          <g id="Group_395" data-name="Group 395">
            <path id="Path_308" data-name="Path 308" d="M1451.12,249.013c-1.953-1.791-400.344,3.431-400.078-1.787C1049.16,245.3,1461.77,240.77,1451.12,249.013Z" fill="#fff"/>
          </g>
        </g>
      </g>
    </g>
    <g id="Group_419" data-name="Group 419">
      <g id="Group_403" data-name="Group 403">
        <g id="Group_399" data-name="Group 399">
          <path id="Path_309" data-name="Path 309" d="M1220.88,643.838h-75.99V508.844a12.4,12.4,0,0,1,12.4-12.4h51.19a12.4,12.4,0,0,1,12.4,12.4Z" fill="#c59ef8"/>
        </g>
        <g id="Group_400" data-name="Group 400">
          <path id="Path_310" data-name="Path 310" d="M1172.18,553.527c-.019,19.8-11.8,19.8-11.821,0C1160.38,533.722,1172.16,533.723,1172.18,553.527Z" fill="#dbc2fb"/>
        </g>
        <g id="Group_401" data-name="Group 401">
          <path id="Path_311" data-name="Path 311" d="M1155.23,517.709a12.4,12.4,0,0,1,12.4-12.4h51.19a12.475,12.475,0,0,1,1.567.11,12.4,12.4,0,0,0-11.91-8.975h-51.19a12.4,12.4,0,0,0-12.4,12.4v135h10.344V517.709Z" fill="#dbc2fb"/>
        </g>
        <g id="Group_402" data-name="Group 402">
          <path id="Path_312" data-name="Path 312" d="M1220.88,647.72h-75.99a3.882,3.882,0,0,1-3.882-3.882V508.844a16.3,16.3,0,0,1,16.282-16.282h51.19a16.3,16.3,0,0,1,16.282,16.282V643.839A3.886,3.886,0,0,1,1220.88,647.72Zm-72.11-7.763H1217V508.844a8.528,8.528,0,0,0-8.519-8.518h-51.19a8.528,8.528,0,0,0-8.519,8.518V639.957Z" fill="#2e0f07"/>
        </g>
      </g>
      <g id="Group_408" data-name="Group 408">
        <g id="Group_404" data-name="Group 404">
          <path id="Path_313" data-name="Path 313" d="M1348.4,643.838h-75.99V407.321a12.4,12.4,0,0,1,12.4-12.4H1336a12.4,12.4,0,0,1,12.4,12.4Z" fill="#f07542"/>
        </g>
        <g id="Group_405" data-name="Group 405">
          <path id="Path_314" data-name="Path 314" d="M1299.7,452c-.019,19.8-11.8,19.8-11.821,0C1287.9,432.2,1299.69,432.2,1299.7,452Z" fill="#f8bca4"/>
        </g>
        <g id="Group_406" data-name="Group 406">
          <path id="Path_315" data-name="Path 315" d="M1282.76,416.186a12.4,12.4,0,0,1,12.4-12.4h51.19a12.475,12.475,0,0,1,1.567.11,12.4,12.4,0,0,0-11.91-8.975h-51.19a12.4,12.4,0,0,0-12.4,12.4V643.839h10.344V416.186Z" fill="#f8bca4"/>
        </g>
        <g id="Group_407" data-name="Group 407">
          <path id="Path_316" data-name="Path 316" d="M1348.4,647.72h-75.99a3.882,3.882,0,0,1-3.882-3.882V407.321a16.3,16.3,0,0,1,16.282-16.282H1336a16.3,16.3,0,0,1,16.282,16.282V643.839A3.873,3.873,0,0,1,1348.4,647.72Zm-72.1-7.763h68.226V407.321a8.528,8.528,0,0,0-8.518-8.519h-51.19a8.528,8.528,0,0,0-8.518,8.519V639.957Z" fill="#2e0f07"/>
        </g>
      </g>
      <g id="Group_413" data-name="Group 413">
        <g id="Group_409" data-name="Group 409">
          <path id="Path_317" data-name="Path 317" d="M1093.35,643.838h-75.99V443.152a12.4,12.4,0,0,1,12.4-12.4h51.19a12.4,12.4,0,0,1,12.4,12.4Z" fill="#fcde4c"/>
        </g>
        <g id="Group_410" data-name="Group 410">
          <path id="Path_318" data-name="Path 318" d="M1044.65,487.836c-.019,19.8-11.8,19.8-11.821,0C1032.85,468.031,1044.64,468.031,1044.65,487.836Z" fill="#fdeb8f"/>
        </g>
        <g id="Group_411" data-name="Group 411">
          <path id="Path_319" data-name="Path 319" d="M1027.71,452.018a12.4,12.4,0,0,1,12.4-12.4h51.19a12.475,12.475,0,0,1,1.567.11,12.4,12.4,0,0,0-11.91-8.975h-51.19a12.4,12.4,0,0,0-12.4,12.4V643.839h10.343Z" fill="#fdeb8f"/>
        </g>
        <g id="Group_412" data-name="Group 412">
          <path id="Path_320" data-name="Path 320" d="M1093.35,647.72h-75.99a3.882,3.882,0,0,1-3.882-3.882V443.152a16.3,16.3,0,0,1,16.282-16.282h51.19a16.3,16.3,0,0,1,16.282,16.282V643.838A3.879,3.879,0,0,1,1093.35,647.72Zm-72.11-7.763h68.227v-196.8a8.529,8.529,0,0,0-8.519-8.519h-51.19a8.528,8.528,0,0,0-8.519,8.519v196.8Z" fill="#2e0f07"/>
        </g>
      </g>
      <g id="Group_418" data-name="Group 418">
        <g id="Group_414" data-name="Group 414">
          <path id="Path_321" data-name="Path 321" d="M1475.93,643.838h-75.99V359.545a12.4,12.4,0,0,1,12.4-12.4h51.19a12.4,12.4,0,0,1,12.4,12.4Z" fill="#ff5250"/>
        </g>
        <g id="Group_415" data-name="Group 415">
          <path id="Path_322" data-name="Path 322" d="M1427.23,404.228c-.019,19.8-11.8,19.8-11.821,0C1415.43,384.424,1427.21,384.424,1427.23,404.228Z" fill="#ff9897"/>
        </g>
        <g id="Group_416" data-name="Group 416">
          <path id="Path_323" data-name="Path 323" d="M1410.28,368.411a12.4,12.4,0,0,1,12.4-12.4h51.19a12.475,12.475,0,0,1,1.567.11,12.4,12.4,0,0,0-11.91-8.975h-51.19a12.4,12.4,0,0,0-12.4,12.4V643.839h10.343Z" fill="#ff9897"/>
        </g>
        <g id="Group_417" data-name="Group 417">
          <path id="Path_324" data-name="Path 324" d="M1475.93,647.72h-75.991a3.882,3.882,0,0,1-3.882-3.882V359.545a16.3,16.3,0,0,1,16.282-16.282h51.19a16.3,16.3,0,0,1,16.282,16.282V643.838A3.884,3.884,0,0,1,1475.93,647.72Zm-72.11-7.763h68.227V359.545a8.528,8.528,0,0,0-8.519-8.518h-51.19a8.528,8.528,0,0,0-8.519,8.518V639.957Z" fill="#2e0f07"/>
        </g>
      </g>
    </g>
    <g id="Group_438" data-name="Group 438">
      <g id="Group_425" data-name="Group 425">
        <g id="Group_420" data-name="Group 420">
          <path id="Path_325" data-name="Path 325" d="M1088.39,141.792A124.794,124.794,0,0,0,963.6,266.586c2.795,164.052,246.819,164,249.588,0H1088.39Z" fill="#ff5250"/>
        </g>
        <g id="Group_421" data-name="Group 421">
          <path id="Path_326" data-name="Path 326" d="M993.81,229.04c-8.148,22.389-19.573,18.23-11.424-4.158S1001.96,206.652,993.81,229.04Z" fill="#ffb4b3"/>
        </g>
        <g id="Group_423" data-name="Group 423">
          <g id="Group_422" data-name="Group 422">
            <path id="Path_327" data-name="Path 327" d="M1196.02,266.586c-9.865,96.509-139.659,142.243-208.182,73.914,64.995,95.731,229.569,44.049,225.345-73.914Z" fill="#ff312f"/>
          </g>
        </g>
        <g id="Group_424" data-name="Group 424">
          <path id="Path_328" data-name="Path 328" d="M1088.39,395.262c-170.133-5.148-170.018-252.261,0-257.352a3.881,3.881,0,0,1,3.879,3.882V262.7h120.912a3.882,3.882,0,0,1,3.882,3.882C1218.5,335.751,1157.55,396.693,1088.39,395.262Zm-3.88-249.526A121.058,121.058,0,0,0,967.479,266.587c2.519,156.6,234.4,159.956,241.763,3.882H1088.39a3.882,3.882,0,0,1-3.882-3.882V145.736Z" fill="#2e0f07"/>
        </g>
      </g>
      <g id="Group_429" data-name="Group 429">
        <g id="Group_426" data-name="Group 426">
          <path id="Path_329" data-name="Path 329" d="M1240.37,245.17a124.794,124.794,0,0,0-124.794-124.794V244.758Z" fill="#f38f65"/>
        </g>
        <g id="Group_427" data-name="Group 427">
          <path id="Path_330" data-name="Path 330" d="M1213.25,245.08l27.121.09a124.794,124.794,0,0,0-124.794-124.794v2.964A124.84,124.84,0,0,1,1213.25,245.08Z" fill="#ee682f"/>
        </g>
        <g id="Group_428" data-name="Group 428">
          <path id="Path_331" data-name="Path 331" d="M1240.37,249.051c0,.007-124.8-.417-124.807-.412a3.882,3.882,0,0,1-3.869-3.882V120.376a3.882,3.882,0,0,1,3.882-3.882A128.675,128.675,0,0,1,1244.252,245.17,3.91,3.91,0,0,1,1240.37,249.051Zm-120.92-8.162,116.969.386A121.064,121.064,0,0,0,1119.45,124.319Z" fill="#2e0f07"/>
        </g>
      </g>
      <g id="Group_433" data-name="Group 433">
        <g id="Group_430" data-name="Group 430">
          <path id="Path_332" data-name="Path 332" d="M1088.58,266.313h124.382a124.439,124.439,0,0,1-38.636,90.28Z" fill="#f8f06d"/>
        </g>
        <g id="Group_431" data-name="Group 431">
          <path id="Path_333" data-name="Path 333" d="M1193.13,266.313a124.447,124.447,0,0,1-36.1,72.07l17.3,18.21a124.438,124.438,0,0,0,38.636-90.28Z" fill="#f6eb3a"/>
        </g>
        <g id="Group_432" data-name="Group 432">
          <path id="Path_334" data-name="Path 334" d="M1174.33,360.475a3.882,3.882,0,0,1-2.815-1.209l-85.746-90.28a3.909,3.909,0,0,1,2.815-6.555h124.382a3.882,3.882,0,0,1,3.882,3.882C1216.51,301.111,1202.38,339.33,1174.33,360.475Zm-76.7-90.28,76.8,80.859a120.615,120.615,0,0,0,34.6-80.859Z" fill="#2e0f07"/>
        </g>
      </g>
      <g id="Group_437" data-name="Group 437">
        <g id="Group_434" data-name="Group 434">
          <path id="Path_335" data-name="Path 335" d="M1088.72,266.619l85.241,90.581a124.214,124.214,0,0,1-65.378,32.289Z" fill="#c59ef8"/>
        </g>
        <g id="Group_435" data-name="Group 435">
          <path id="Path_336" data-name="Path 336" d="M1112.19,388.85a124.208,124.208,0,0,0,61.78-31.65l-13.593-14.444a124.059,124.059,0,0,1-53.858,21.806Z" fill="#ad75f5"/>
        </g>
        <g id="Group_436" data-name="Group 436">
          <path id="Path_337" data-name="Path 337" d="M1110.81,392.989a3.9,3.9,0,0,1-3.82-3.193L1084.9,267.308a3.881,3.881,0,0,1,6.646-3.349l85.241,90.581C1182.02,368.116,1123.23,393.135,1110.81,392.989Zm-15.94-114.178,19.063,105.723a120.383,120.383,0,0,0,54.505-27.545Z" fill="#2e0f07"/>
        </g>
      </g>
    </g>
    <g id="Group_447" data-name="Group 447">
      <g id="Group_439" data-name="Group 439">
        <path id="Path_338" data-name="Path 338" d="M1500.69,211.686l-37.12,7.072c-8.421,2.758-2.316,10.709,1.744,14.872l-92.077,71.616-54.588-57a11.19,11.19,0,0,0-13.675,1.28l-64.159,60.27a11.189,11.189,0,1,0,15.322,16.31l57.819-54.315c83.807,84.934,34.1,72.793,165.687-20.956,3.6,4.614,10.91,14.762,15.672,5.844l12.926-36.122C1509.88,216,1505.44,210.783,1500.69,211.686Z" fill="#acd350"/>
      </g>
      <g id="Group_440" data-name="Group 440">
        <path id="Path_339" data-name="Path 339" d="M1489.76,221.77c.114,7.689-12.1,7.689-11.988,0C1477.66,214.081,1489.88,214.081,1489.76,221.77Z" fill="#e2f0c2"/>
      </g>
      <g id="Group_441" data-name="Group 441">
        <path id="Path_340" data-name="Path 340" d="M1288.38,276.713c-20.057,18.254-22.479,15.59-2.35-2.59C1306.08,255.868,1308.5,258.533,1288.38,276.713Z" fill="#e2f0c2"/>
      </g>
      <g id="Group_442" data-name="Group 442">
        <path id="Path_341" data-name="Path 341" d="M1433.15,268.8c-31.2,24.178-33.41,21.324-2.141-2.766C1462.21,241.852,1464.42,244.705,1433.15,268.8Z" fill="#e2f0c2"/>
      </g>
      <g id="Group_443" data-name="Group 443">
        <path id="Path_342" data-name="Path 342" d="M1239.76,310.946c-5.975,6.832-.3,18.559,8.726,18.194,6.521,2.018,37.019-32.108,41.922-35.221A113.064,113.064,0,0,1,1239.76,310.946Z" fill="#87bf02"/>
      </g>
      <g id="Group_444" data-name="Group 444">
        <path id="Path_343" data-name="Path 343" d="M1488.4,249.1a73.308,73.308,0,0,1-7.181,3.615l3.98,4.779q1.239-1.2,2.455-2.427-1.215,1.231-2.455,2.427c3.094,3.786,8.638,3.353,10.125-.816l6.807-19.023A58.631,58.631,0,0,1,1488.4,249.1Z" fill="#87bf02"/>
      </g>
      <g id="Group_445" data-name="Group 445">
        <path id="Path_344" data-name="Path 344" d="M1354.93,314.783l12.938,13.577a11.189,11.189,0,0,0,12.883-.6l38.328-29.811C1396.34,305.982,1381.4,324.6,1354.93,314.783Z" fill="#87bf02"/>
      </g>
      <g id="Group_446" data-name="Group 446">
        <path id="Path_345" data-name="Path 345" d="M1373.88,333.988c-7.213,4.563-55.1-53.639-60.067-56.728l-55.01,51.676a15.071,15.071,0,1,1-20.638-21.969l64.159-60.271c5.176-4.885,13.484-5.581,19.136-1.136l52.166,54.472,86.144-67c-6.163-5.21-5.7-16.42,3.081-18.085l37.119-7.072a10.837,10.837,0,0,1,11.934,13.994l-12.927,36.122c-4.27,10.041-15.4,5.969-19.907-1.783l-95.933,74.615A15.081,15.081,0,0,1,1373.88,333.988Zm-3.56-8.686c2.5,10.007,103.87-77.7,106.949-77.528,4.343-3.646,8.486,5.07,10.952,7.286,1.122,1.333,2.913,1.636,3.446.312l12.927-36.122a3.082,3.082,0,0,0-3.171-3.751c-.019,0-37.182,7.088-37.168,7.082-1.459.364-1.154,2.337-.226,3.433,3.052,3.56,7.559,8,3.646,10.7-2.026,1.547-91.967,71.557-92.189,71.7-3.056,7.334-56.948-57.246-59.487-57.222-5.564-8.7-68.106,60.192-72.7,61.6a7.323,7.323,0,0,0,.019,10.329c2.591,3.265,8.865,2.067,10.183.138,1.377-1.243,57.7-54.248,57.934-54.416C1314.63,260.79,1367.82,325.191,1370.32,325.3Zm130.37-113.616h0Z" fill="#2e0f07"/>
      </g>
    </g>
  </g>
</svg>
