<svg xmlns="http://www.w3.org/2000/svg" width="162.78" height="173.979" viewBox="0 0 162.78 173.979">
  <g id="Group_63" data-name="Group 63" transform="translate(0 4.594)">
    <g id="Group_54" data-name="Group 54" transform="translate(0)">
      <path id="Path_84" data-name="Path 84" d="M443.42,369.442v10.839c-12.312-.149-14.322.448-25.838,1.622-10.251,1.035-20.135,2.508-29.58,4.31-4.8.906-9.485,1.9-14.053,2.956-10.56,2.439-20.463,5.215-29.58,8.122q-7.39,2.344-14.063,4.777c-11.725,4.24-21.7,8.49-29.57,12.133-12.252,5.663-19.408,9.863-20.095,10.271A170.866,170.866,0,0,1,300.735,411a238.191,238.191,0,0,1,29.57-14.312q6.987-2.822,14.063-5.275c9.953-3.474,19.926-6.42,29.58-8.9,4.777-1.234,9.475-2.349,14.053-3.364,10.7-2.369,20.732-4.18,29.58-5.564C438.951,370.248,443.42,369.442,443.42,369.442Z" transform="translate(-280.64 -255.086)" fill="#f4640e"/>
      <g id="Group_53" data-name="Group 53" transform="translate(20.091 40.226)">
        <path id="Path_85" data-name="Path 85" d="M330.4,324.911v76.946c-11.725,4.24-21.7,8.49-29.57,12.133V341.711A248.359,248.359,0,0,1,330.4,324.911Z" transform="translate(-300.826 -295.102)" fill="#f4640e"/>
        <path id="Path_86" data-name="Path 86" d="M374.246,307.231v81.644c-10.56,2.438-20.463,5.215-29.58,8.122V318.418C354.659,314.148,364.641,310.436,374.246,307.231Z" transform="translate(-301.033 -295.019)" fill="#f4640e"/>
        <path id="Path_87" data-name="Path 87" d="M418.086,294.961v86.59c-10.251,1.035-20.135,2.508-29.58,4.31V302.754C399.414,299.5,409.507,296.932,418.086,294.961Z" transform="translate(-301.239 -294.961)" fill="#f4640e"/>
      </g>
      <path id="Path_88" data-name="Path 88" d="M330.4,324.911v48.441a292.933,292.933,0,0,0-29.57,14.5V341.711A248.359,248.359,0,0,1,330.4,324.911Z" transform="translate(-280.735 -254.876)" fill="#ffc661" opacity="0.19"/>
      <path id="Path_89" data-name="Path 89" d="M344.666,318.418c9.993-4.27,19.975-7.982,29.58-11.187V358.14c-10.749,2.966-20.612,6.211-29.58,9.545Z" transform="translate(-280.942 -254.793)" fill="#ffc661" opacity="0.19"/>
      <path id="Path_90" data-name="Path 90" d="M418.086,294.961v53.726c-10.441,1.642-20.294,3.613-29.58,5.8V302.754C399.414,299.5,409.507,296.932,418.086,294.961Z" transform="translate(-281.148 -254.735)" fill="#ffc661" opacity="0.19"/>
      <path id="Path_91" data-name="Path 91" d="M300.826,341.711a248.385,248.385,0,0,1,29.57-16.8v21.747a292.22,292.22,0,0,0-29.57,15.039Z" transform="translate(-280.735 -254.876)" fill="#ffc661" opacity="0.19"/>
      <path id="Path_92" data-name="Path 92" d="M344.666,318.418c9.993-4.27,19.975-7.982,29.58-11.187V330.76c-10.769,3.125-20.632,6.519-29.58,9.993Z" transform="translate(-280.942 -254.793)" fill="#ffc661" opacity="0.19"/>
      <path id="Path_93" data-name="Path 93" d="M388.506,302.754c10.908-3.255,21-5.822,29.58-7.793v25.728c-10.451,1.792-20.3,3.892-29.58,6.211Z" transform="translate(-281.148 -254.735)" fill="#ffc661" opacity="0.19"/>
      <path id="Path_94" data-name="Path 94" d="M286.117,333.16s104.044-29.746,143.77-58.122l7.567,8.828,5.991-25.021-24.593-4.3,5.991,8.512S381.305,300.029,286.117,333.16Z" transform="translate(-284.666 -259.138)" fill="#fecdc1"/>
    </g>
  </g>
</svg>
